<!-- <svg xmlns="http://www.w3.org/2000/svg" viewBox="0 0 308.21 114.2"><defs><style>.cls-1{font-size:55px;fill:#8abf3c;font-family:Poppins-Bold, Poppins;font-weight:700;letter-spacing:0.09em;}.cls-2,.cls-5{fill:#1c8643;}.cls-2,.cls-3{letter-spacing:0.09em;}.cls-3{fill:#000;}.cls-4{fill:#80b62b;}</style></defs><g id="Layer_2" data-name="Layer 2"><g id="Layer_1-2" data-name="Layer 1"><text class="cls-1" transform="translate(69.84 80.87)">O<tspan class="cls-2" x="48.29" y="0">O</tspan><tspan class="cls-3" x="96.58" y="0">KIFY</tspan></text><text/><circle class="cls-4" cx="8.7" cy="8.7" r="8.7"/><rect class="cls-5" y="21.12" width="17.39" height="60.88" rx="8.7"/><rect class="cls-5" x="21.12" width="36.03" height="17.39" rx="8.7"/><path class="cls-4" d="M46.31,27.09c-.72,6.5-4,16.29-17.11,18.45a6.69,6.69,0,0,0-5.59,6.61v.08a6.72,6.72,0,0,0,7.44,6.68c10.18-1,27.45-6.43,29.63-30.55A6.7,6.7,0,0,0,54,21.12H53A6.7,6.7,0,0,0,46.31,27.09Z"/><path class="cls-4" d="M30.81,59.3c6.51.72,16.29,4,18.46,17.1A6.69,6.69,0,0,0,55.88,82H56a6.73,6.73,0,0,0,6.68-7.44c-1-10.18-6.43-27.45-30.56-29.63a6.68,6.68,0,0,0-7.23,6.7v1A6.7,6.7,0,0,0,30.81,59.3Z"/><path class="cls-4" d="M49,69.48c-6.63,0-15.77,0-21.43-.07-2.86,0-5.19,2.81-5.19,6.3h0c0,3.47,2.32,6.29,5.17,6.29H55a2.37,2.37,0,0,0,2.11-2.57h0C57.15,73.93,53.49,69.47,49,69.48Z"/></g></g></svg> -->

<svg xmlns="http://www.w3.org/2000/svg" viewBox="0 0 308.21 114.2">
  <defs>
    <style>
      .cls-1 { font-size: 55px; fill: #8abf3c; font-family: 'Poppins-Bold', Poppins; font-weight: 700; letter-spacing: 0.09em; }
      .cls-2, .cls-5 { fill: #1c8643; }
      .cls-2, .cls-3 { letter-spacing: 0.09em; font-family: Poppins; }
      .cls-3 { fill: #000; font-family: Poppins; }
      .cls-4 { fill: #80b62b; }
    </style>
  </defs>
  <g id="Layer_2" data-name="Layer 2">
    <g id="Layer_1-2" data-name="Layer 1">
      <text class="cls-1" transform="translate(69.84 80.87)">O<tspan class="cls-2" x="48.29" y="0">O</tspan><tspan class="cls-3" x="96.58" y="0">KIFY</tspan></text>
      <text/>
      <circle class="cls-4" cx="8.7" cy="8.7" r="8.7"/>
      <rect class="cls-5" y="21.12" width="17.39" height="60.88" rx="8.7"/>
      <rect class="cls-5" x="21.12" width="36.03" height="17.39" rx="8.7"/>
      <path class="cls-4" d="M46.31,27.09c-.72,6.5-4,16.29-17.11,18.45a6.69,6.69,0,0,0-5.59,6.61v.08a6.72,6.72,0,0,0,7.44,6.68c10.18-1,27.45-6.43,29.63-30.55A6.7,6.7,0,0,0,54,21.12H53A6.7,6.7,0,0,0,46.31,27.09Z"/>
      <path class="cls-4" d="M30.81,59.3c6.51.72,16.29,4,18.46,17.1A6.69,6.69,0,0,0,55.88,82H56a6.73,6.73,0,0,0,6.68-7.44c-1-10.18-6.43-27.45-30.56-29.63a6.68,6.68,0,0,0-7.23,6.7v1A6.7,6.7,0,0,0,30.81,59.3Z"/>
      <path class="cls-4" d="M49,69.48c-6.63,0-15.77,0-21.43-.07-2.86,0-5.19,2.81-5.19,6.3h0c0,3.47,2.32,6.29,5.17,6.29H55a2.37,2.37,0,0,0,2.11-2.57h0C57.15,73.93,53.49,69.47,49,69.48Z"/>
    </g>
  </g>
</svg>
