<svg xmlns="http://www.w3.org/2000/svg" viewBox="0 0 62.72 82"><defs><style>.cls-1{fill:#80b62b;}.cls-2{fill:#1c8643;}</style></defs><g id="Layer_2" data-name="Layer 2"><g id="Layer_1-2" data-name="Layer 1"><circle class="cls-1" cx="8.7" cy="8.7" r="8.7"/><path class="cls-2" d="M8.69,21.12h0a8.7,8.7,0,0,1,8.7,8.7V73.3A8.7,8.7,0,0,1,8.69,82h0A8.7,8.7,0,0,1,0,73.3V29.82A8.7,8.7,0,0,1,8.69,21.12Z"/><path class="cls-2" d="M29.82,0H48.45a8.7,8.7,0,0,1,8.7,8.69h0a8.7,8.7,0,0,1-8.7,8.7H29.82a8.7,8.7,0,0,1-8.7-8.7h0A8.7,8.7,0,0,1,29.82,0Z"/><path class="cls-1" d="M46.31,27.09c-.72,6.5-4,16.29-17.11,18.45a6.69,6.69,0,0,0-5.59,6.61v.08A6.72,6.72,0,0,0,30.33,59a5.79,5.79,0,0,0,.72,0c10.18-1,27.45-6.43,29.63-30.55a6.7,6.7,0,0,0-6.14-7.22l-.54,0H53A6.69,6.69,0,0,0,46.31,27.09Z"/><path class="cls-1" d="M30.81,59.3c6.51.72,16.29,4,18.46,17.1A6.69,6.69,0,0,0,55.88,82H56a6.74,6.74,0,0,0,6.72-6.74c0-.24,0-.47,0-.7-1-10.18-6.43-27.45-30.56-29.63A6.69,6.69,0,0,0,24.91,51c0,.19,0,.39,0,.59v1A6.71,6.71,0,0,0,30.81,59.3Z"/><path class="cls-1" d="M49,69.48c-6.63,0-15.77,0-21.43-.07-2.86,0-5.19,2.81-5.19,6.3h0c0,3.47,2.32,6.29,5.17,6.29H55a2.37,2.37,0,0,0,2.11-2.57h0C57.15,73.93,53.49,69.47,49,69.48Z"/></g></g></svg>